<svg width="56" height="62" viewBox="0 0 56 62" fill="none" xmlns="http://www.w3.org/2000/svg">
<path d="M26.812 24.3401C23.6911 16.1402 25.0925 6.9049 30.5055 1.95807e-05L49.3307 41.5518L33.8205 42.7543L26.812 24.3401Z" fill="url(#paint0_linear_1408_447)"/>
<path d="M9.62314 36.0943C13.0344 29.092 21.886 26.7799 28.2859 31.2195L23.5699 42.5905L6.45839 42.5905L9.62314 36.0943Z" fill="url(#paint1_linear_1408_447)"/>
<path d="M55.4993 55.8467C55.4993 56.3145 55.3865 56.7531 55.161 57.1624C54.9438 57.5718 54.5971 57.9017 54.1209 58.1524C53.6531 58.403 53.06 58.5283 52.3415 58.5283H50.8754V61.8866H49.1211V53.14H52.3415C53.0182 53.14 53.5946 53.257 54.0708 53.4909C54.547 53.7248 54.902 54.0464 55.1359 54.4558C55.3782 54.8651 55.4993 55.3287 55.4993 55.8467ZM52.2663 57.1123C52.7509 57.1123 53.1101 57.0037 53.344 56.7865C53.5779 56.5609 53.6949 56.2477 53.6949 55.8467C53.6949 54.9946 53.2187 54.5685 52.2663 54.5685H50.8754V57.1123H52.2663Z" fill="white"/>
<path d="M42.1117 53.14V58.5533C42.1117 59.1465 42.2663 59.6018 42.5754 59.9192C42.8845 60.2283 43.3189 60.3829 43.8786 60.3829C44.4467 60.3829 44.8852 60.2283 45.1943 59.9192C45.5034 59.6018 45.658 59.1465 45.658 58.5533V53.14H47.4248V58.5408C47.4248 59.2843 47.2619 59.915 46.9361 60.433C46.6187 60.9426 46.1884 61.3268 45.6454 61.5858C45.1108 61.8448 44.5135 61.9743 43.8535 61.9743C43.2019 61.9743 42.6088 61.8448 42.0741 61.5858C41.5479 61.3268 41.1302 60.9426 40.8211 60.433C40.512 59.915 40.3574 59.2843 40.3574 58.5408V53.14H42.1117Z" fill="white"/>
<path d="M35.4692 54.5563V56.7492H38.4139V58.1402H35.4692V60.4584H38.7898V61.8869H33.7148V53.1278H38.7898V54.5563H35.4692Z" fill="white"/>
<path d="M31.9809 61.8869H30.2266L26.2543 55.8846V61.8869H24.5V53.1278H26.2543L30.2266 59.1426V53.1278H31.9809V61.8869Z" fill="white"/>
<path d="M22.766 53.14V61.8866H21.0117V53.14H22.766Z" fill="white"/>
<path d="M17.0143 60.4956H19.8964V61.8866H15.26V53.14H17.0143V60.4956Z" fill="white"/>
<path d="M11.2621 60.4956H14.1442V61.8866H9.50781V53.14H11.2621V60.4956Z" fill="white"/>
<path d="M5.90204 60.2203H2.41846L1.84204 61.8869H0L3.14525 53.1278H5.18778L8.33303 61.8869H6.47846L5.90204 60.2203ZM5.42586 58.8168L4.16025 55.1578L2.89463 58.8168H5.42586Z" fill="white"/>
<defs>
<linearGradient id="paint0_linear_1408_447" x1="23.6208" y1="3.24311" x2="43.0583" y2="44.5065" gradientUnits="userSpaceOnUse">
<stop stop-color="white"/>
<stop offset="1" stop-color="white"/>
</linearGradient>
<linearGradient id="paint1_linear_1408_447" x1="7.11876" y1="42.4063" x2="30.2601" y2="36.4839" gradientUnits="userSpaceOnUse">
<stop stop-color="white"/>
<stop offset="1" stop-color="white"/>
</linearGradient>
</defs>
</svg>
