<svg width="105" height="26" viewBox="0 0 105 26" fill="none" xmlns="http://www.w3.org/2000/svg">
<path d="M10.9593 12.6104C9.47679 8.32074 10.2727 3.57188 13.0728 1.69059e-06L23.0177 22.0157L14.2097 22.0157L10.9593 12.6104Z" fill="#778C44"/>
<path d="M2.31963 18.5862C4.07624 14.9805 8.6342 13.7899 11.9298 16.0761L9.50132 21.9314L0.689987 21.9314L2.31963 18.5862Z" fill="#778C44"/>
<path d="M105 11.815C105 12.4489 104.847 13.0432 104.542 13.5979C104.247 14.1526 103.777 14.5998 103.132 14.9394C102.498 15.279 101.694 15.4488 100.721 15.4488H98.7342V19.9996H96.3569V8.14716H100.721C101.638 8.14716 102.419 8.30565 103.064 8.62262C103.709 8.93959 104.191 9.37542 104.508 9.93012C104.836 10.4848 105 11.1131 105 11.815ZM100.619 13.53C101.276 13.53 101.762 13.3828 102.079 13.0885C102.396 12.7828 102.555 12.3583 102.555 11.815C102.555 10.6603 101.91 10.0829 100.619 10.0829H98.7342V13.53H100.619Z" fill="#778C44"/>
<path d="M86.8586 8.14711V15.4827C86.8586 16.2864 87.068 16.9034 87.4869 17.3336C87.9057 17.7524 88.4944 17.9618 89.2528 17.9618C90.0226 17.9618 90.6169 17.7524 91.0358 17.3336C91.4546 16.9034 91.6641 16.2864 91.6641 15.4827V8.14711H94.0583V15.4657C94.0583 16.4732 93.8376 17.3279 93.3961 18.0298C92.9659 18.7203 92.3829 19.241 91.6471 19.592C90.9226 19.9429 90.1132 20.1184 89.2189 20.1184C88.3359 20.1184 87.5322 19.9429 86.8076 19.592C86.0945 19.241 85.5285 18.7203 85.1096 18.0298C84.6907 17.3279 84.4813 16.4732 84.4813 15.4657V8.14711H86.8586Z" fill="#778C44"/>
<path d="M77.8573 10.0663V13.0379H81.8477V14.9228H77.8573V18.0642H82.3571V19.9999H75.48V8.13057H82.3571V10.0663H77.8573Z" fill="#778C44"/>
<path d="M73.1304 19.9999H70.7531L65.3703 11.8663V19.9999H62.993V8.13057H65.3703L70.7531 16.2812V8.13057H73.1304V19.9999Z" fill="#778C44"/>
<path d="M60.6434 8.14716V19.9996H58.2661V8.14716H60.6434Z" fill="#778C44"/>
<path d="M52.8491 18.1147H56.7546V19.9996H50.4718V8.14716H52.8491V18.1147Z" fill="#778C44"/>
<path d="M45.0545 18.1147H48.96V19.9995H42.6772V8.14711H45.0545V18.1147Z" fill="#778C44"/>
<path d="M37.791 17.7415H33.0705L32.2893 19.9999H29.7932L34.0553 8.13057H36.8231L41.0853 19.9999H38.5721L37.791 17.7415ZM37.1458 15.8397L35.4307 10.8814L33.7157 15.8397H37.1458Z" fill="#778C44"/>
</svg>
